<svg width="36" height="36" viewBox="0 0 36 36" fill="none" xmlns="http://www.w3.org/2000/svg">
<path d="M31.4206 12.4574C31.4041 11.3219 31.1941 10.1954 30.7921 9.13344C30.0886 7.31994 28.6561 5.88594 26.8426 5.18394C25.7941 4.78944 24.6856 4.57794 23.5636 4.55394C22.1206 4.48944 21.6631 4.47144 18.0001 4.47144C14.3371 4.47144 13.8676 4.47144 12.4351 4.55394C11.3146 4.57794 10.2061 4.78944 9.15761 5.18394C7.34411 5.88594 5.91011 7.31994 5.20811 9.13344C4.81361 10.1819 4.60061 11.2904 4.57961 12.4109C4.51511 13.8554 4.49561 14.3129 4.49561 17.9759C4.49561 21.6389 4.49561 22.1069 4.57961 23.5409C4.60211 24.6629 4.81361 25.7699 5.20811 26.8214C5.91161 28.6334 7.34411 30.0674 9.15911 30.7694C10.2031 31.1774 11.3116 31.4084 12.4366 31.4444C13.8811 31.5089 14.3386 31.5284 18.0016 31.5284C21.6646 31.5284 22.1341 31.5284 23.5666 31.4444C24.6871 31.4219 25.7956 31.2104 26.8456 30.8159C28.6591 30.1124 30.0916 28.6784 30.7951 26.8664C31.1896 25.8164 31.4011 24.7094 31.4236 23.5859C31.4881 22.1429 31.5076 21.6854 31.5076 18.0209C31.5046 14.3579 31.5046 13.8929 31.4206 12.4574ZM17.9911 24.9029C14.1601 24.9029 11.0566 21.7994 11.0566 17.9684C11.0566 14.1374 14.1601 11.0339 17.9911 11.0339C21.8191 11.0339 24.9256 14.1374 24.9256 17.9684C24.9256 21.7994 21.8191 24.9029 17.9911 24.9029ZM25.2016 12.3944C24.3061 12.3944 23.5846 11.6714 23.5846 10.7774C23.5846 9.88344 24.3061 9.16044 25.2016 9.16044C26.0941 9.16044 26.8171 9.88344 26.8171 10.7774C26.8171 11.6714 26.0941 12.3944 25.2016 12.3944Z" fill="#010116"/>
<path d="M17.9911 22.4731C20.4788 22.4731 22.4956 20.4564 22.4956 17.9686C22.4956 15.4808 20.4788 13.4641 17.9911 13.4641C15.5033 13.4641 13.4866 15.4808 13.4866 17.9686C13.4866 20.4564 15.5033 22.4731 17.9911 22.4731Z" fill="#010116"/>
</svg>
